<svg width="64" height="64" viewBox="0 0 64 64" fill="none" xmlns="http://www.w3.org/2000/svg">
<path d="M13.9833 37.7886C11.5163 35.263 10 31.8333 10 28.0556C10 20.2929 16.4023 14 24.3 14C29.1364 14 33.412 19.2349 36 22.8471C38.588 19.2349 42.8636 14 47.7 14C55.5977 14 62 20.2929 62 28.0556C62 32.0187 60.3312 35.5987 57.6467 38.1538L36 60L13.9833 37.7886Z" fill="#B2B6F4"/>
<path d="M9.98331 33.7886C7.51629 31.263 6 27.8333 6 24.0556C6 16.2929 12.4023 10 20.3 10C25.1364 10 29.412 15.2349 32 18.8471C34.588 15.2349 38.8636 10 43.7 10C51.5977 10 58 16.2929 58 24.0556C58 28.0187 56.3312 31.5987 53.6467 34.1538L32 56L9.98331 33.7886Z" fill="#F8B7C2"/>
<path fill-rule="evenodd" clip-rule="evenodd" d="M8.56288 35.1966L8.55258 35.1861C5.7388 32.3055 4 28.3811 4 24.0556C4 15.1559 11.3304 8 20.3 8C23.4367 8 26.1758 9.6824 28.3157 11.5687C29.6989 12.7879 30.9403 14.1888 32 15.5208C33.0597 14.1888 34.3011 12.7879 35.6843 11.5687C37.8242 9.6824 40.5633 8 43.7 8C52.6696 8 60 15.1559 60 24.0556C60 28.5832 58.0953 32.6699 55.0475 35.5817L33.4207 57.4077C33.0451 57.7867 32.5337 58 32.0002 58C31.4666 58 30.9552 57.7869 30.5796 57.408L8.56288 35.1966ZM53.6467 34.1538C56.3312 31.5987 58 28.0187 58 24.0556C58 16.2929 51.5977 10 43.7 10C39.5769 10 35.8613 13.8047 33.2515 17.1651C32.8001 17.7464 32.3817 18.3144 32 18.8471C31.6183 18.3144 31.1999 17.7464 30.7485 17.1651C28.1387 13.8047 24.4231 10 20.3 10C12.4023 10 6 16.2929 6 24.0556C6 27.8333 7.51629 31.263 9.98331 33.7886L32 56L53.6467 34.1538Z" fill="#763B28"/>
<path fill-rule="evenodd" clip-rule="evenodd" d="M30.0088 53.9911L32 56L53.6467 34.1538C56.3313 31.5987 58 28.0187 58 24.0555C58 19.713 55.9965 15.8304 52.8484 13.2521C54.8201 15.6613 56 18.723 56 22.0555C56 26.0187 54.3313 29.5987 51.6467 32.1538L30.0088 53.9911ZM30.2367 16.5188C29.2858 15.3423 28.2079 14.1451 27.0317 13.103C28.1696 14.3673 29.1713 15.6904 30 16.8471C30.0774 16.7391 30.1563 16.6296 30.2367 16.5188Z" fill="#F28B9D"/>
<path fill-rule="evenodd" clip-rule="evenodd" d="M13.0726 16.1167C10.8184 18.2677 9.51808 21.1556 9.68413 23.7794C9.71902 24.3306 9.30047 24.8057 8.74929 24.8406C8.19811 24.8755 7.72301 24.457 7.68813 23.9058C7.47668 20.5648 9.11231 17.1313 11.6918 14.6697C14.2837 12.1965 17.9356 10.6001 21.8915 11.0775C22.4399 11.1437 22.8307 11.6418 22.7645 12.1901C22.6983 12.7384 22.2002 13.1293 21.6519 13.0631C18.3941 12.6699 15.3145 13.9773 13.0726 16.1167Z" fill="#FFEEF1"/>
<path fill-rule="evenodd" clip-rule="evenodd" d="M40.1913 14.1513C38.8283 14.9461 37.7987 15.9591 37.2894 16.6139C36.9503 17.0498 36.3221 17.1284 35.8861 16.7893C35.4502 16.4502 35.3716 15.822 35.7107 15.386C36.3681 14.5408 37.5885 13.3539 39.1838 12.4236C40.7836 11.4907 42.8284 10.7778 45.0995 11.0049C45.6491 11.0599 46.05 11.5499 45.9951 12.0995C45.9401 12.649 45.4501 13.05 44.9005 12.995C43.1717 12.8221 41.5498 13.3592 40.1913 14.1513Z" fill="#FFEEF1"/>
</svg>
